<svg width="90" height="139" viewBox="0 0 90 139" fill="none" xmlns="http://www.w3.org/2000/svg">
<path d="M41 71V82.5H46.5" stroke="white" stroke-width="2" stroke-linecap="round" stroke-linejoin="round"/>
<g filter="url(#filter0_di_68_1587)">
<path d="M51.305 44.4179C50.6597 44.2112 50 44.6927 50 45.3702V61.9783V63.5V67.5426V83.6386C50 84.3136 50.655 84.7947 51.2991 84.5928L66.2991 79.8915C66.7161 79.7608 67 79.3744 67 78.9373V50.1735C67 49.7387 66.719 49.3537 66.305 49.2211L51.305 44.4179Z" fill="white" fill-opacity="0.83" shape-rendering="crispEdges"/>
<path d="M51 61.9783V45.3702L66 50.1735L66 78.9373L51 83.6386V67.5426V63.5V61.9783Z" stroke="white" stroke-width="2" shape-rendering="crispEdges"/>
</g>
<path fill-rule="evenodd" clip-rule="evenodd" d="M44.8132 64.0009L34.9333 64.0009C34.4181 64.0009 34 64.4489 34 65.001C34 65.5531 34.4181 66.0011 34.9333 66.0011L44.8132 66.0011L43.6074 67.2933C43.2434 67.6833 43.2434 68.3174 43.6074 68.7075C43.9714 69.0975 44.5631 69.0975 44.9271 68.7075L47.727 65.7071C48.091 65.317 48.091 64.683 47.727 64.2929L44.9271 61.2925C44.5631 60.9025 43.9714 60.9025 43.6074 61.2925C43.2434 61.6826 43.2434 62.3167 43.6074 62.7067L44.8132 63.9989L44.8132 64.0009Z" fill="white"/>
<path d="M41 59V48H47" stroke="white" stroke-width="2" stroke-linecap="round" stroke-linejoin="round"/>
<defs>
<filter id="filter0_di_68_1587" x="0" y="-1.63086" width="117" height="140.271" filterUnits="userSpaceOnUse" color-interpolation-filters="sRGB">
<feFlood flood-opacity="0" result="BackgroundImageFix"/>
<feColorMatrix in="SourceAlpha" type="matrix" values="0 0 0 0 0 0 0 0 0 0 0 0 0 0 0 0 0 0 127 0" result="hardAlpha"/>
<feOffset dy="4"/>
<feGaussianBlur stdDeviation="25"/>
<feComposite in2="hardAlpha" operator="out"/>
<feColorMatrix type="matrix" values="0 0 0 0 1 0 0 0 0 1 0 0 0 0 1 0 0 0 1 0"/>
<feBlend mode="normal" in2="BackgroundImageFix" result="effect1_dropShadow_68_1587"/>
<feBlend mode="normal" in="SourceGraphic" in2="effect1_dropShadow_68_1587" result="shape"/>
<feColorMatrix in="SourceAlpha" type="matrix" values="0 0 0 0 0 0 0 0 0 0 0 0 0 0 0 0 0 0 127 0" result="hardAlpha"/>
<feOffset dy="4"/>
<feGaussianBlur stdDeviation="10"/>
<feComposite in2="hardAlpha" operator="arithmetic" k2="-1" k3="1"/>
<feColorMatrix type="matrix" values="0 0 0 0 0.662745 0 0 0 0 0.741176 0 0 0 0 0.87451 0 0 0 1 0"/>
<feBlend mode="normal" in2="shape" result="effect2_innerShadow_68_1587"/>
</filter>
</defs>
</svg>
